<?xml version="1.0" standalone="no"?>
<!DOCTYPE svg PUBLIC "-//W3C//DTD SVG 20010904//EN"
 "http://www.w3.org/TR/2001/REC-SVG-20010904/DTD/svg10.dtd">
<svg version="1.0" xmlns="http://www.w3.org/2000/svg"
 width="1280.000000pt" height="1240.000000pt" viewBox="0 0 1280.000000 1240.000000"
 preserveAspectRatio="xMidYMid meet">
<metadata>
Created by potrace 1.15, written by Peter Selinger 2001-2017
</metadata>
<g transform="translate(0.000000,1240.000000) scale(0.100000,-0.100000)"
fill="#000000" stroke="none">
<path d="M3875 12390 c-336 -85 -1036 -696 -1374 -1199 l-61 -91 -48 29 c-26
16 -83 42 -127 57 -71 25 -94 28 -210 28 -148 0 -217 -14 -329 -71 -147 -73
-253 -183 -327 -338 -79 -165 -89 -348 -30 -524 17 -51 31 -94 31 -95 0 -2
-30 -22 -68 -44 -217 -129 -596 -455 -821 -707 -454 -507 -593 -895 -289 -811
114 32 295 135 473 269 321 243 696 631 894 925 l60 90 88 -44 c170 -83 304
-93 538 -37 16 3 52 -24 145 -109 722 -654 1399 -1488 1873 -2307 l65 -113
-63 -129 c-197 -406 -269 -886 -195 -1314 32 -190 73 -334 148 -521 l20 -51
-67 -139 c-195 -402 -513 -877 -941 -1409 -276 -342 -618 -729 -908 -1028
l-95 -97 -86 16 c-160 30 -346 1 -471 -73 -3 -2 -20 22 -38 52 -140 233 -599
683 -962 942 -259 184 -525 306 -627 287 -160 -30 -45 -293 287 -661 266 -294
698 -644 992 -802 l96 -51 -34 -78 c-52 -119 -67 -204 -62 -340 4 -92 10 -132
31 -190 69 -193 197 -336 374 -418 98 -46 190 -66 303 -66 125 0 205 17 295
62 l73 37 49 -66 c139 -191 476 -533 703 -715 325 -260 632 -426 789 -426 32
0 48 6 68 26 23 23 25 31 20 80 -29 282 -682 954 -1289 1328 -43 27 -78 52
-78 56 0 5 9 29 20 54 48 112 61 265 35 410 l-14 80 87 95 c141 157 555 567
724 719 534 478 1136 919 1645 1206 l83 46 104 -49 c191 -92 394 -152 626
-187 139 -21 441 -24 580 -6 226 30 455 96 651 189 l115 54 130 -72 c463 -259
1048 -700 1654 -1249 189 -171 550 -513 689 -653 l124 -125 -11 -58 c-15 -72
-15 -217 -1 -286 6 -29 25 -83 41 -121 17 -37 29 -69 27 -71 -2 -1 -51 -35
-109 -74 -143 -98 -289 -221 -450 -382 -342 -342 -598 -682 -691 -915 -33 -83
-33 -169 0 -196 152 -124 842 403 1304 996 65 83 202 284 210 308 2 6 14 3 28
-7 46 -30 184 -74 265 -85 280 -39 572 118 708 379 94 179 106 372 36 580 -15
47 -24 86 -20 88 5 2 55 34 112 72 553 367 1215 1152 1222 1448 1 45 -3 57
-23 73 -171 139 -947 -483 -1410 -1130 -45 -63 -93 -134 -107 -158 -14 -23
-29 -43 -33 -43 -4 0 -36 16 -73 35 -139 74 -336 97 -483 56 l-69 -19 -97 89
c-127 117 -414 412 -560 575 -534 596 -977 1219 -1307 1838 l-91 169 21 51
c45 110 110 326 133 440 87 432 46 876 -120 1290 l-46 115 37 68 c207 376 458
734 819 1168 305 367 723 816 1092 1174 l230 223 164 2 c186 2 248 17 363 87
58 36 62 37 76 20 8 -10 44 -56 80 -102 140 -181 453 -475 728 -683 308 -233
623 -396 765 -396 49 0 86 19 93 47 14 52 -69 199 -212 378 -105 130 -421 451
-552 558 -224 185 -484 367 -628 441 l-71 36 26 72 c23 66 25 88 25 223 0 136
-3 158 -27 230 -73 219 -239 385 -462 461 -72 25 -94 28 -215 28 -120 0 -145
-3 -220 -28 -129 -41 -122 -41 -147 -3 -52 82 -198 253 -328 383 -347 347
-826 684 -1098 769 -468 148 -208 -380 468 -950 216 -182 555 -422 678 -481
l36 -17 -30 -58 c-74 -147 -95 -347 -55 -513 l20 -79 -260 -256 c-142 -141
-324 -314 -404 -385 -575 -511 -1206 -961 -1849 -1320 l-174 -97 -116 49
c-289 123 -528 178 -821 188 -277 10 -512 -24 -786 -114 l-145 -48 -187 96
c-674 345 -1494 973 -2420 1851 l-112 107 16 68 c23 98 14 244 -21 344 -14 41
-28 82 -31 91 -4 11 13 27 63 56 173 103 472 350 695 575 528 531 752 1032
423 948z m6880 -1750 c58 -28 89 -85 83 -154 -5 -61 -27 -96 -79 -125 -100
-57 -233 21 -231 134 1 73 39 126 109 151 52 18 70 17 118 -6z m-8612 -14 c18
-7 45 -27 61 -44 83 -89 0 -242 -132 -242 -78 0 -144 68 -145 149 -2 110 111
182 216 137z m22 -8577 c43 -25 75 -87 75 -143 0 -39 -6 -52 -35 -85 -45 -50
-82 -65 -146 -59 -111 11 -167 130 -110 235 14 26 68 69 96 76 31 7 87 -4 120
-24z m8560 -19 c50 -31 79 -95 70 -152 -10 -57 -77 -123 -133 -133 -74 -12
-145 29 -171 98 -18 48 -14 131 9 159 48 62 150 74 225 28z"/>
</g>
</svg>
